<?xml version="1.0" encoding="UTF-8"?>
<svg version="1.1" xmlns="http://www.w3.org/2000/svg" width="32" height="32">
<path d="M0 0 C10.56 0 21.12 0 32 0 C32 10.56 32 21.12 32 32 C21.44 32 10.88 32 0 32 C0 21.44 0 10.88 0 0 Z " fill="#055705" transform="translate(0,0)"/>
<path d="M0 0 C0.99 0 1.98 0 3 0 C4.6875 2.5 4.6875 2.5 6 5 C6.433125 4.175 6.86625 3.35 7.3125 2.5 C7.869375 1.675 8.42625 0.85 9 0 C9.99 0 10.98 0 12 0 C12.95261487 4.76307437 13.08333357 9.1666528 13 14 C12.01 14 11.02 14 10 14 C9.67 11.36 9.34 8.72 9 6 C7.515 8.475 7.515 8.475 6 11 C5.01 9.68 4.02 8.36 3 7 C2.34 9.31 1.68 11.62 1 14 C0.34 14 -0.32 14 -1 14 C-1.027193 12.41676312 -1.04648306 10.83338938 -1.0625 9.25 C-1.07410156 8.36828125 -1.08570313 7.4865625 -1.09765625 6.578125 C-1.00826198 4.2181162 -0.66912821 2.25501476 0 0 Z " fill="#E7EFE7" transform="translate(4,9)"/>
<path d="M0 0 C0.721875 0.103125 1.44375 0.20625 2.1875 0.3125 C2.5175 1.3025 2.8475 2.2925 3.1875 3.3125 C0.8775 3.9725 -1.4325 4.6325 -3.8125 5.3125 C-3.85504356 7.31204746 -3.85330783 9.31291636 -3.8125 11.3125 C-1.84427114 13.28072886 1.53558709 12.97498381 4.1875 13.3125 C4.1875 13.9725 4.1875 14.6325 4.1875 15.3125 C1 16.125 1 16.125 -2.8125 16.3125 C-6.23514067 13.90936932 -7.58064736 12.42539267 -8.4375 8.3125 C-7.44304738 3.5391274 -4.96626208 0.5518069 0 0 Z " fill="#DAE6DA" transform="translate(25.8125,7.6875)"/>
<path d="M0 0 C0.99 0 1.98 0 3 0 C3.95261487 4.76307437 4.08333357 9.1666528 4 14 C3.01 14 2.02 14 1 14 C0.8046875 11.94921875 0.609375 9.8984375 0.4140625 7.84765625 C0.27742187 7.23792969 0.14078125 6.62820312 0 6 C-0.66 5.67 -1.32 5.34 -2 5 C-1.34 3.35 -0.68 1.7 0 0 Z " fill="#DDE8DD" transform="translate(13,9)"/>
<path d="M0 0 C0.7425 0.0825 1.485 0.165 2.25 0.25 C2.58 1.24 2.91 2.23 3.25 3.25 C-0.05 3.58 -3.35 3.91 -6.75 4.25 C-3.42692308 0.31153846 -3.42692308 0.31153846 0 0 Z " fill="#CFDFCF" transform="translate(25.75,7.75)"/>
</svg>
